# xmcd CD database file
#
# Track frame offsets:
#	150
#	23465
#	48645
#	65925
#	86292
#	109510
#	132010
#	157545
#	178145
#	199675
#	225742
#	252392
#
# Disc length: 3655 seconds
#
# Revision: 3
# Processed by: cddbd v1.5PL3 Copyright (c) Steve Scherf et al.
# Submitted via: CDex 1.50
#
DISCID=930e450c
DTITLE=五十嵐はるみ - Marbles Chat
DYEAR=2003
DGENRE=Jazz
TTITLE0=Deeper than deep
TTITLE1=Summertime
TTITLE2=てぃーんず・ぶるーす
TTITLE3=The Look Of Love
TTITLE4=月に抱かれて踊りましょ
TTITLE5=Sweet Soft'n Lazy
TTITLE6=Beautiful day
TTITLE7=蘇洲夜曲
TTITLE8=靴音
TTITLE9=Just Another Way
TTITLE10=Tell Me A Bedtime Story
TTITLE11=Always Shine -tanpopo-
EXTD=YEAR: 2003
EXTT0=
EXTT1=
EXTT2=
EXTT3=
EXTT4=
EXTT5=
EXTT6=
EXTT7=
EXTT8=
EXTT9=
EXTT10=
EXTT11=
PLAYORDER=
